inDegrees=yes
name=ik_S44_A08_T02
DataType=double
version=3
OpenSimVersion=4.3-2021-08-27-4bc7ad9
endheader
time	pelvis_tilt	pelvis_list	pelvis_rotation	pelvis_tx	pelvis_ty	pelvis_tz	hip_flexion_r	hip_adduction_r	hip_rotation_r	knee_angle_r	knee_angle_r_beta	ankle_angle_r	subtalar_angle_r	mtp_angle_r	hip_flexion_l	hip_adduction_l	hip_rotation_l	knee_angle_l	knee_angle_l_beta	ankle_angle_l	subtalar_angle_l	mtp_angle_l	lumbar_extension	lumbar_bending	lumbar_rotation	arm_flex_r	arm_add_r	arm_rot_r	elbow_flex_r	pro_sup_r	wrist_flex_r	wrist_dev_r	arm_flex_l	arm_add_l	arm_rot_l	elbow_flex_l	pro_sup_l	wrist_flex_l	wrist_dev_l
6.799999999999943	-8.202790050885012	-1.932070755054496	33.18995306037721	0	0.9399999999999999	0	33.24247849545024	-10.44426373943236	-9.745540263639558	34.78668154652475	0.6071421288296098	0	0	0	33.24247849545024	-10.44426373943236	-9.745540263639558	34.78668154652475	0.6071421288296098	0	0	0	-6.830101120437782	-1.344685502025372	2.337839260897506	37.85215894421356	-2.30206078248987	4.96141314510099	33.79975204426276	133.6428289027513	0	0	79.76594433928196	6.183786834845462	-4.301267636045007	16.11534410376758	92.7849917619432	0	0
6.819999999999943	-8.215144185922821	-1.92645121340951	33.11493032459298	0	0.9399999999999999	0	33.24707040172291	-10.443684909661	-9.745754526914869	34.79248764141929	0.6072434643022028	0	0	0	33.24707040172291	-10.443684909661	-9.745754526914869	34.79248764141929	0.6072434643022028	0	0	0	-6.835759420314038	-1.342131838550669	2.409762033153885	37.86680495382828	-2.309008435891956	4.949885226860824	33.7906194678764	133.6834304854654	0	0	80.01568939466999	6.299199162939082	-4.349150697172173	15.30054356286748	93.8069507934465	0	0
6.839999999999942	-8.231055167610872	-1.927939196528392	33.07955569280686	0	0.9399999999999999	0	33.2534505997294	-10.44286634375356	-9.746055695663676	34.80043069475074	0.6073820967354983	0	0	0	33.2534505997294	-10.44286634375356	-9.746055695663676	34.80043069475074	0.6073820967354983	0	0	0	-6.849545134641217	-1.337983683836065	2.447173965175193	37.88351931224517	-2.327603145050958	5.015681457325686	33.79478938340387	133.6561499405498	0	0	80.20564740358661	6.395693000664606	-4.053179035688723	14.66683759298904	94.40879745429982	0	0
6.859999999999942	-8.239623207967583	-1.94266943799197	33.05858712058107	0	0.9399999999999999	0	33.25685157418057	-10.44243207272259	-9.7462157653851	34.80467880372458	0.6074562402240752	0	0	0	33.25685157418057	-10.44243207272259	-9.7462157653851	34.80467880372458	0.6074562402240752	0	0	0	-6.86401399445613	-1.350260857699319	2.487735483261957	37.89111010145009	-2.311505890786767	5.045601071064106	33.75858569664251	133.6183230563318	0	0	80.32090650362038	6.482007197698578	-3.539645925934702	14.33125112354141	94.54768636232879	0	0
6.879999999999941	-8.253763155935189	-1.947233301270934	33.06645741197038	0	0.9399999999999999	0	33.26002784896833	-10.44202880543846	-9.746364718709184	34.80866393556695	0.6075257938958507	0	0	0	33.26002784896833	-10.44202880543846	-9.746364718709184	34.80866393556695	0.6075257938958507	0	0	0	-6.878210281462408	-1.348537556404585	2.510347287861755	37.93644533152868	-2.335507821282413	5.112122667530951	33.74409334764938	133.5450785410668	0	0	80.44168033326586	6.540494490027205	-3.194066473516895	14.01580856943548	94.38800688695201	0	0
6.899999999999941	-8.262951302805794	-1.9515795374725	33.12260558780526	0	0.9399999999999999	0	33.26358332548241	-10.44157956620752	-9.74653095605086	34.81314032788187	0.6076039216803569	0	0	0	33.26358332548241	-10.44157956620752	-9.74653095605086	34.81314032788187	0.6076039216803569	0	0	0	-6.889091341431939	-1.343833671297922	2.492852607018497	37.97214738096251	-2.375795513868518	5.229468995140663	33.67058840316124	133.4430786971209	0	0	80.52627547113246	6.58493953091951	-3.026569272331253	13.89440234875749	94.1142339169768	0	0
6.91999999999994	-8.258789881395497	-1.979846299883198	33.1946489628485	0	0.9399999999999999	0	33.26721359388102	-10.44111466489798	-9.746702200938749	34.817656173953	0.6076827380628115	0	0	0	33.26721359388102	-10.44111466489798	-9.746702200938749	34.817656173953	0.6076827380628115	0	0	0	-6.901180621906075	-1.369186111523822	2.492732633586796	38.01109460538628	-2.405233639492095	5.308866479113364	33.61828615629161	133.2579734849326	0	0	80.54281313786434	6.561761660669358	-2.958190156397776	13.98467639665967	94.46808927944906	0	0
6.93999999999994	-8.253307180206113	-1.976772813152077	33.2561187810693	0	0.9399999999999999	0	33.27161005293994	-10.44055636188969	-9.746908494333764	34.82316005891534	0.6077787989770552	0	0	0	33.27161005293994	-10.44055636188969	-9.746908494333764	34.82316005891534	0.6077787989770552	0	0	0	-6.896261508798356	-1.363321036292328	2.455187715961701	37.99587807572391	-2.429833505546379	5.297596784270008	33.57610021837137	133.2433593778294	0	0	80.49767027809598	6.470192765934852	-3.105071967761257	14.08799543004072	95.01899254180707	0	0
6.95999999999994	-8.233786705388919	-2.001353122814239	33.29454864083699	0	0.9399999999999999	0	33.27481945586092	-10.44016653786592	-9.747054833538405	34.82732645209862	0.6078515162560361	0	0	0	33.27481945586092	-10.44016653786592	-9.747054833538405	34.82732645209862	0.6078515162560361	0	0	0	-6.894685667160257	-1.390524896293426	2.432454282910116	38.0043305293438	-2.388878269257573	5.266207582109975	33.55115221550576	133.2195665918389	0	0	80.29885661382235	6.429894509524174	-3.018823631154442	14.53149368212284	95.72554113786205	0	0
6.979999999999939	-8.231727576314359	-2.008972244710714	33.26996257033252	0	0.9399999999999999	0	33.2789909830529	-10.43963720217781	-9.747250513660223	34.8325472560682	0.6079426364749065	0	0	0	33.2789909830529	-10.43963720217781	-9.747250513660223	34.8325472560682	0.6079426364749065	0	0	0	-6.897312483514136	-1.397795772867056	2.442411524685317	38.0111267413922	-2.389878864381061	5.273279653981069	33.55216887110604	133.2265111146575	0	0	79.86831054379161	6.26311797211057	-2.515136844790739	15.56317317471385	95.93701878830733	0	0
6.999999999999939	-8.228533984998494	-2.009066264525719	33.29150489130423	0	0.9399999999999999	0	33.28512239331636	-10.4388575987259	-9.747538557489618	34.84020138244584	0.60807622618156	0	0	0	33.28512239331636	-10.4388575987259	-9.747538557489618	34.84020138244584	0.60807622618156	0	0	0	-6.896704245272796	-1.394228025196399	2.419780285272848	38.00795332669657	-2.411523206767469	5.232738795439105	33.54966769808669	133.2628112109508	0	0	79.29048210330842	5.953578358193337	-2.057534289928483	17.02405540644418	96.34537698531625	0	0
7.019999999999938	-8.239798511809372	-2.005426269949392	33.25584972351586	0	0.9399999999999999	0	33.29950871631055	-10.43704338945259	-9.748211422545447	34.85821140604404	0.6083905603917106	0	0	0	33.29950871631055	-10.43704338945259	-9.748211422545447	34.85821140604404	0.6083905603917106	0	0	0	-6.905200285535586	-1.383390612565594	2.442345577641774	38.00596593651347	-2.414958183276887	5.178501009188668	33.57337365368723	133.3382948917633	0	0	78.63566448408145	5.704023643956934	-1.829773877384552	20.18234829616623	98.26363979967041	0	0
7.039999999999938	-8.239687989589468	-2.026954929557072	33.31187079314554	0	0.9399999999999999	0	33.30685871419787	-10.43611273809657	-9.748556023594507	34.86738887247104	0.6085507373978529	0	0	0	33.30685871419787	-10.43611273809657	-9.748556023594507	34.86738887247104	0.6085507373978529	0	0	0	-6.91953427769941	-1.392172131566028	2.392291054616195	37.97460559590341	-2.412210497534816	5.057147192214937	33.66257240981689	133.389840260293	0	0	78.00725759664063	5.345738150938661	-1.539509677871442	21.76164508864607	98.48900380130222	0	0
7.059999999999937	-8.238536007988555	-2.054925059904271	33.17547115256343	0	0.9399999999999999	0	33.314111707237	-10.43519732607175	-9.748895453757928	34.87645913991892	0.6087090434288549	0	0	0	33.314111707237	-10.43519732607175	-9.748895453757928	34.87645913991892	0.6087090434288549	0	0	0	-6.929450225927779	-1.43919744902058	2.55009729068445	38.00385438172666	-2.382543428291621	5.008778659145571	33.67748775661418	133.3712268656678	0	0	77.99021374228866	5.550063443145191	-1.327847092724574	24.49825549576438	100.0349073283378	0	0
7.079999999999937	-8.241563433368306	-2.070528260096125	33.26367742990157	0	0.9399999999999999	0	33.32157823768872	-10.43425517678799	-9.749244904471119	34.88578839416642	0.6088718696322294	0	0	0	33.32157823768872	-10.43425517678799	-9.749244904471119	34.88578839416642	0.6088718696322294	0	0	0	-6.943789888271735	-1.440790487109534	2.496211450801006	37.96682984614325	-2.438654713463934	4.911313064375328	33.77032485454473	133.41246697293	0	0	77.33479811867642	5.18831451325099	-0.9566181444102569	26.29200522351446	100.2865169080475	0	0
7.099999999999937	-8.247017231293642	-2.11311831555243	33.54943013208388	0	0.9399999999999999	0	33.3287387967416	-10.43335125045694	-9.749580224556091	34.89472012935133	0.6090277578191224	0	0	0	33.3287387967416	-10.43335125045694	-9.749580224556091	34.89472012935133	0.6090277578191224	0	0	0	-6.977104275020367	-1.437881092065967	2.277121958360583	38.02863258791368	-2.431044227780694	4.831338986129301	33.79070425672599	133.4165963425154	0	0	75.95169575723033	4.219192302726504	-0.376769461660795	30.11649614664163	100.8846855520475	0	0
